<mxfile host="app.diagrams.net" modified="2024-06-19T04:39:41.467Z" agent="Mozilla/5.0 (X11; Linux x86_64; rv:127.0) Gecko/20100101 Firefox/127.0" version="24.5.5" etag="MjcuArAF0zCexFnHZQ6a" type="github">
  <diagram name="Page-1" id="Phdgswy66s3Pg5ouK5XJ">
    <mxGraphModel>
      <root>
        <mxCell id="0" />
        <mxCell id="1" parent="0" />
      </root>
    </mxGraphModel>
  </diagram>
</mxfile>
